<svg width="160" height="20" viewBox="0 0 160 20" fill="none" xmlns="http://www.w3.org/2000/svg">
    <g clip-path="url(#clip0_7666_3768)">
        <path d="M140.537 16.502C149.346 16.502 156.461 9.38166 156.461 0.649902H124.612C124.612 9.38166 131.765 16.502 140.537 16.502Z" fill="black"/>
        <path d="M158.607 2.44871C158.833 2.44871 159.097 2.44871 159.097 2.18639C159.097 1.96154 158.908 1.92406 158.72 1.92406H158.381V2.48619H158.607V2.44871ZM158.381 3.31065H158.193V1.73668H158.795C159.172 1.73668 159.323 1.88658 159.323 2.14891C159.323 2.41124 159.134 2.56114 158.946 2.59862L159.398 3.31065H159.172L158.72 2.59862H158.381V3.31065ZM157.515 2.52367C157.515 3.16075 158.005 3.6854 158.645 3.6854C159.285 3.6854 159.774 3.16075 159.774 2.52367C159.774 1.88658 159.285 1.36193 158.645 1.36193C158.005 1.36193 157.515 1.88658 157.515 2.52367ZM160 2.52367C160 3.27317 159.398 3.87278 158.645 3.87278C157.892 3.87278 157.29 3.27317 157.29 2.52367C157.29 1.77416 157.892 1.17455 158.645 1.17455C159.435 1.17455 160 1.77416 160 2.52367Z" fill="black"/>
        <path d="M84.2919 9.79389L86.4378 2.41124C86.7766 1.17456 87.266 0.574951 88.3578 0.574951C89.3366 0.574951 90.1649 1.32446 90.1649 2.29882C90.1649 2.71105 90.0143 3.12327 89.9013 3.46055L86.1743 15.1154C85.8731 16.0148 85.2707 16.502 84.5178 16.502C83.6519 16.502 83.0496 16.0523 82.786 15.2653L79.8496 7.02071L77.026 15.2653C76.7625 16.0523 76.1225 16.502 75.2943 16.502C74.3155 16.502 73.9013 15.9398 73.6002 15.1154L69.7225 3.5355C69.6472 3.2357 69.459 2.82347 69.459 2.37377C69.459 1.43688 70.2496 0.612427 71.2284 0.612427C72.2825 0.612427 72.7719 1.28698 73.1107 2.48619L75.3696 9.83136L78.0049 1.88659C78.2684 1.09961 78.946 0.612427 79.8119 0.612427C80.6402 0.612427 81.2802 1.06213 81.506 1.73669L84.2919 9.79389Z" fill="black"/>
        <path d="M94.5315 8.51972C94.5315 11.0306 96.5268 13.0168 99.0492 13.0168C101.496 13.0168 103.529 11.068 103.529 8.63215C103.529 6.08383 101.572 4.06016 99.1245 4.06016C96.6021 4.06016 94.5315 6.08383 94.5315 8.51972ZM107.143 8.66963C107.143 12.9793 103.492 16.5769 99.0492 16.5769C94.5315 16.5769 90.9551 13.0168 90.9551 8.4073C90.9551 4.09763 94.6068 0.5 99.0868 0.5C103.492 0.5 107.143 4.17258 107.143 8.66963Z" fill="black"/>
        <path d="M116.217 8.29487L121.374 13.0168C121.939 13.5414 122.391 13.9911 122.391 14.7406C122.391 15.7525 121.562 16.502 120.584 16.502C119.868 16.502 119.417 16.0897 118.927 15.64L112.941 10.0187V14.4783C112.941 15.7899 112.113 16.502 111.172 16.502C110.193 16.502 109.365 15.7899 109.365 14.4783V2.59862C109.365 1.32446 110.193 0.574951 111.172 0.574951C112.151 0.574951 112.941 1.28698 112.941 2.59862V6.72091L118.174 1.47436C118.664 0.98718 119.115 0.574951 119.831 0.574951C120.809 0.574951 121.6 1.36193 121.6 2.33629C121.6 3.04832 121.186 3.49803 120.659 3.98521L116.217 8.29487Z" fill="black"/>
        <path d="M155.671 10.0562H124.988C124.8 10.0562 124.649 10.1686 124.612 10.356V10.3935V10.431C124.649 10.6183 124.8 10.7308 124.951 10.7308L155.633 11.6302C156.085 11.6302 156.461 11.2929 156.461 10.8432C156.499 10.431 156.122 10.0562 155.671 10.0562Z" fill="#27A737"/>
        <path d="M152.019 17.926L123.181 7.47041C123.03 7.39546 122.842 7.47041 122.729 7.62031C122.729 7.62031 122.729 7.65779 122.692 7.65779V7.69527C122.654 7.88264 122.729 8.03254 122.917 8.10749L151.416 19.425C151.83 19.5749 152.32 19.3876 152.47 18.9379C152.659 18.5631 152.47 18.1134 152.019 17.926Z" fill="#27A737"/>
        <path d="M7.86824 0.5C3.68941 0.5 0 4.09763 0 8.48225C0 12.9418 3.68941 16.5394 8.16941 16.5394C11.3318 16.5394 14.6071 14.3284 14.6071 12.5671C14.6071 11.7801 13.9671 10.8807 12.7624 10.8807C12.3106 10.8807 11.8588 11.1055 11.4824 11.4428C10.88 11.9675 9.90118 12.9793 8.13177 12.9793C5.53412 12.9793 3.53882 10.9556 3.53882 8.48225C3.53882 6.08383 5.53412 4.02268 7.94353 4.02268C9.48706 4.02268 10.3529 4.62229 11.3318 5.48422C11.7082 5.8215 12.0847 6.04635 12.6118 6.04635C13.7035 6.04635 14.3812 5.18442 14.3812 4.39744C14.3812 3.49803 13.9294 2.97337 13.1012 2.33629C11.52 1.09961 10.0518 0.5 7.86824 0.5Z" fill="#E30613"/>
        <path d="M20.5555 6.75838H26.3531V2.59862C26.3531 1.32446 27.1814 0.612427 28.1602 0.612427C29.139 0.612427 29.9296 1.32446 29.9296 2.59862V14.5158C29.9296 15.8274 29.1014 16.5394 28.1602 16.5394C27.1814 16.5394 26.3531 15.8274 26.3531 14.5158V10.0562H20.5555V14.5158C20.5555 15.8274 19.7272 16.5394 18.7861 16.5394C17.8072 16.5394 16.979 15.8274 16.979 14.5158V2.59862C16.979 1.32446 17.8072 0.612427 18.7861 0.612427C19.7649 0.612427 20.5555 1.28698 20.5555 2.59862V6.75838Z" fill="#E30613"/>
        <path d="M33.3931 2.59862C33.3931 1.32446 34.2213 0.612427 35.2001 0.612427C36.1789 0.612427 36.9695 1.28698 36.9695 2.59862V14.5158C36.9695 15.8274 36.1413 16.5394 35.2001 16.5394C34.2213 16.5394 33.3931 15.8274 33.3931 14.5158V2.59862Z" fill="#E30613"/>
        <path d="M50.1084 9.86884V2.59862C50.1084 1.32446 50.8989 0.612427 51.8778 0.612427C52.8566 0.612427 53.6848 1.32446 53.6848 2.59862V14.216C53.6848 14.5533 53.6848 15.003 53.5719 15.3028C53.346 16.0148 52.5931 16.502 51.8025 16.502C50.9366 16.502 50.5225 16.0897 50.0331 15.4527L43.6707 7.28304V14.4783C43.6707 15.7899 42.8425 16.502 41.9013 16.502C40.9225 16.502 40.0942 15.7899 40.0942 14.4783V2.44872C40.0942 1.39941 40.8095 0.612427 41.8636 0.612427C42.5413 0.612427 42.9931 1.02466 43.4825 1.62426L50.1084 9.86884Z" fill="#E30613"/>
        <path d="M64.6024 10.5809L62.6824 6.08383L60.8377 10.5809H64.6024ZM65.8448 13.6538H59.5577L59.0683 14.7781C58.6165 15.7899 58.1271 16.427 57.3742 16.427C55.9813 16.427 55.3789 15.4901 55.3789 14.8531C55.3789 14.216 55.6424 13.6913 55.793 13.3915L60.9883 1.81164C61.3271 1.09961 61.8918 0.724854 62.7201 0.724854C63.473 0.724854 64.113 1.17456 64.4142 1.81164L69.7601 13.354C69.9107 13.7288 70.1742 14.1785 70.1742 14.8156C70.1742 15.5276 69.5342 16.4645 68.1789 16.4645C67.3883 16.4645 66.8989 15.8649 66.4471 14.8531L65.8448 13.6538Z" fill="#E30613"/>
    </g>
    <defs>
        <clipPath id="clip0_7666_3768">
            <rect width="160" height="19" fill="white" transform="translate(0 0.5)"/>
        </clipPath>
    </defs>
</svg>
